<svg width="155" height="64" viewBox="0 0 155 64" fill="none" xmlns="http://www.w3.org/2000/svg">
<path d="M54.5837 22.0434V30.7958L59.1998 26.517L63.2278 26.5324L58.3956 31.2148L63.3752 37.555H59.4752L56.2894 33.2305L54.5837 34.8761V37.555H51.3082V22.0434L54.5837 22.0434Z" fill="white"/>
<path d="M65.6378 41.9224V39.336H69.8731L70.557 37.555H68.6949L64.9879 26.5151H68.3499L71.2423 35.1879L74.1266 26.5151H77.23L73.4694 37.6731C72.6616 40.1537 71.9803 40.8231 71.3642 41.2048C70.8388 41.5303 70.245 41.7263 69.633 41.812C68.8479 41.922 67.5852 42.0066 65.6378 41.9224Z" fill="white"/>
<path d="M82.4254 37.4848C78.7561 37.0096 78.9941 32.9272 78.9941 32.9272L78.9924 26.4983H82.3114L82.3131 32.3752C82.3131 32.3752 82.0424 34.8069 84.2875 34.8534C86.9345 34.9082 87.011 31.9291 87.011 31.9291L87.0093 26.4984H90.3283L90.33 37.555H87.0258V35.091C87.0258 35.091 86.1104 37.9619 82.4254 37.4848Z" fill="white"/>
<path d="M94.0715 33.6413V29.0499H92.091V27.4616L94.3128 26.5151L95.6695 23.9711H97.3495L97.3591 26.5151H100.499L100.499 29.0499H97.3412V34.9352L100.189 34.9534V37.555H97.053C95.4478 37.555 94.1358 36.2734 94.0965 34.6671L94.0715 33.6413Z" fill="white"/>
<path d="M114.538 24.7796V22.7812H117.771V24.7796H114.538ZM117.771 26.5423V37.555H114.538V26.5423H117.771Z" fill="white"/>
<path d="M112.611 33.5411L112.601 29.9351C112.601 29.8819 112.602 29.8287 112.603 29.7755C112.617 29.2719 112.519 25.9146 107.604 25.9147C102.139 25.9149 102.272 29.8384 102.272 29.8384H105.459C105.467 28.0003 107.604 28.1417 107.604 28.1417C107.604 28.1417 109.511 28.0356 109.59 29.1844C109.67 30.3333 109.029 30.3782 108.089 30.5365C106.558 30.7944 106.721 30.6337 104.214 31.3142C101.707 31.9946 102.051 34.7606 102.051 34.7606C102.051 34.7606 102.227 37.6414 105.821 37.553C109.414 37.4647 109.749 34.8136 109.749 34.8136C109.678 35.2378 109.934 37.555 109.934 37.555H112.777C112.601 37.1344 112.611 33.5411 112.611 33.5411ZM107.63 35.2289C107.63 35.2289 105.776 35.7768 105.291 34.4248C104.975 33.5459 105.581 33.033 106.044 32.7816C106.258 32.6648 106.493 32.59 106.733 32.5439C107.377 32.4204 109.16 32.0394 109.599 31.535C109.599 31.535 109.926 34.6192 107.63 35.2289Z" fill="white"/>
<path d="M44.4596 22.0518C45.0864 22.0518 45.5019 22.7026 45.2385 23.272L38.8675 37.0484C38.727 37.3522 38.423 37.5466 38.0885 37.5466C37.4617 37.5466 37.0462 36.8959 37.3095 36.3264L43.6806 22.5501C43.8211 22.2463 44.1251 22.0518 44.4596 22.0518Z" fill="#39F2AE"/>
</svg>
